<svg width="24" height="24" viewBox="0 0 24 24" fill="none" xmlns="http://www.w3.org/2000/svg"><path d="M11.240 0.024 C 9.737 0.153,8.581 0.427,7.348 0.946 C 5.172 1.863,3.328 3.388,2.011 5.360 C 0.334 7.873,-0.335 10.977,0.162 13.947 C 0.950 18.660,4.423 22.446,9.033 23.621 C 13.982 24.882,19.153 22.894,21.988 18.640 C 23.669 16.118,24.335 13.025,23.838 10.053 C 23.263 6.617,21.245 3.609,18.295 1.791 C 16.857 0.905,15.223 0.328,13.500 0.100 C 13.040 0.039,11.617 -0.009,11.240 0.024 M13.560 1.618 C 17.806 2.287,21.184 5.382,22.197 9.530 C 22.417 10.434,22.460 10.834,22.460 12.000 C 22.460 12.822,22.444 13.163,22.388 13.520 C 21.770 17.478,19.087 20.687,15.351 21.937 C 14.168 22.333,13.227 22.488,12.000 22.488 C 10.775 22.488,9.832 22.333,8.652 21.938 C 4.924 20.691,2.232 17.484,1.619 13.560 C 1.519 12.921,1.496 11.509,1.575 10.832 C 2.087 6.419,5.230 2.853,9.530 1.803 C 9.948 1.701,10.448 1.616,11.040 1.545 C 11.387 1.503,13.157 1.555,13.560 1.618 M11.660 6.035 C 11.122 6.178,10.698 6.683,10.654 7.232 C 10.644 7.362,10.755 8.632,10.912 10.185 C 11.225 13.272,11.199 13.145,11.577 13.378 C 11.972 13.623,12.492 13.488,12.716 13.083 C 12.804 12.923,12.833 12.703,13.088 10.185 C 13.245 8.632,13.356 7.362,13.346 7.232 C 13.310 6.776,13.019 6.352,12.594 6.137 C 12.370 6.024,11.897 5.972,11.660 6.035 M11.600 15.063 C 10.422 15.375,10.125 16.972,11.110 17.700 C 11.553 18.027,12.153 18.082,12.656 17.842 C 13.245 17.561,13.605 16.866,13.479 16.256 C 13.353 15.643,12.956 15.212,12.381 15.062 C 12.092 14.987,11.889 14.987,11.600 15.063 " stroke="none" fill-rule="evenodd"></path></svg>