<svg width="24" height="24" viewBox="0 0 24 24" fill="none" xmlns="http://www.w3.org/2000/svg"><path d="M11.408 3.043 C 10.418 3.172,9.389 3.705,8.703 4.446 C 7.439 5.811,7.146 7.794,7.960 9.466 C 9.284 12.186,12.852 12.847,15.069 10.783 C 16.875 9.102,16.977 6.260,15.297 4.446 C 14.321 3.391,12.840 2.857,11.408 3.043 M10.560 13.564 C 6.877 13.881,4.301 15.484,3.298 18.081 C 3.224 18.270,3.126 18.613,3.078 18.843 C 2.841 19.990,3.190 20.701,4.107 20.940 C 4.454 21.031,19.546 21.031,19.893 20.940 C 20.810 20.701,21.159 19.990,20.922 18.843 C 20.670 17.625,19.931 16.424,18.907 15.572 C 17.519 14.415,15.708 13.757,13.380 13.561 C 12.823 13.514,11.114 13.516,10.560 13.564 " stroke="none" fill-rule="evenodd"></path></svg>